<!-- Generator: Adobe Illustrator 24.1.0, SVG Export Plug-In  -->
<svg version="1.1" xmlns="http://www.w3.org/2000/svg" xmlns:xlink="http://www.w3.org/1999/xlink" x="0px" y="0px" width="212.5px"
	 height="35px" viewBox="0 0 212.5 35" style="enable-background:new 0 0 212.5 35;" xml:space="preserve">
<style type="text/css">
	.st0{fill:#B3B3B3;}
	.st1{fill:#E6E6E6;}
	.st2{fill:#808080;}
</style>
<defs>
</defs>
<g>
	<g>
		<g>
			<rect x="16.5" y="5" class="st0" width="5" height="5"/>
			<rect x="21.5" y="5" class="st0" width="5" height="5"/>
			<rect x="26.5" y="5" class="st0" width="5" height="5"/>
			<rect x="16.5" y="10" class="st0" width="5" height="5"/>
			<rect x="21.5" y="10" class="st0" width="5" height="5"/>
			<rect x="26.5" y="10" class="st0" width="5" height="5"/>
			<rect x="26.5" y="15" class="st1" width="5" height="5"/>
			<rect x="21.5" y="15" class="st1" width="5" height="5"/>
			<rect x="16.5" y="15" class="st1" width="5" height="5"/>
		</g>
		<g>
			<rect x="19" class="st2" width="5" height="5"/>
			<rect x="11.5" y="7.5" class="st2" width="5" height="5"/>
			<rect x="11.5" y="12.5" class="st2" width="5" height="5"/>
			<rect x="14" y="17.5" class="st2" width="5" height="5"/>
			<rect x="29" y="17.5" class="st2" width="5" height="5"/>
			<rect x="19" y="20" class="st2" width="5" height="5"/>
			<rect x="24" y="20" class="st2" width="5" height="5"/>
			<rect x="24" y="20" class="st2" width="5" height="5"/>
			<rect x="31.5" y="7.5" class="st2" width="5" height="5"/>
			<rect x="31.5" y="12.5" class="st2" width="5" height="5"/>
			<rect x="14" y="2.5" class="st2" width="5" height="5"/>
			<rect x="29" y="2.5" class="st2" width="5" height="5"/>
			<rect x="24" class="st2" width="5" height="5"/>
		</g>
	</g>
	<g>
		<g>
			<rect x="46.5" y="5" class="st0" width="5" height="5"/>
			<rect x="51.5" y="5" class="st0" width="5" height="5"/>
			<rect x="56.5" y="5" class="st0" width="5" height="5"/>
			<rect x="46.5" y="10" class="st0" width="5" height="5"/>
			<rect x="51.5" y="10" class="st0" width="5" height="5"/>
			<rect x="56.5" y="10" class="st0" width="5" height="5"/>
			<rect x="56.5" y="15" class="st1" width="5" height="5"/>
			<rect x="51.5" y="15" class="st1" width="5" height="5"/>
			<rect x="46.5" y="15" class="st1" width="5" height="5"/>
		</g>
		<g>
			<rect x="49" class="st2" width="5" height="5"/>
			<rect x="41.5" y="7.5" class="st2" width="5" height="5"/>
			<rect x="41.5" y="12.5" class="st2" width="5" height="5"/>
			<rect x="44" y="17.5" class="st2" width="5" height="5"/>
			<rect x="59" y="17.5" class="st2" width="5" height="5"/>
			<rect x="49" y="20" class="st2" width="5" height="5"/>
			<rect x="54" y="20" class="st2" width="5" height="5"/>
			<rect x="54" y="20" class="st2" width="5" height="5"/>
			<rect x="61.5" y="7.5" class="st2" width="5" height="5"/>
			<rect x="61.5" y="12.5" class="st2" width="5" height="5"/>
			<rect x="44" y="2.5" class="st2" width="5" height="5"/>
			<rect x="59" y="2.5" class="st2" width="5" height="5"/>
			<rect x="54" class="st2" width="5" height="5"/>
		</g>
	</g>
	<g>
		<g>
			<rect x="76.5" y="5" class="st0" width="5" height="5"/>
			<rect x="81.5" y="5" class="st0" width="5" height="5"/>
			<rect x="86.5" y="5" class="st0" width="5" height="5"/>
			<rect x="76.5" y="10" class="st0" width="5" height="5"/>
			<rect x="81.5" y="10" class="st0" width="5" height="5"/>
			<rect x="86.5" y="10" class="st0" width="5" height="5"/>
			<rect x="86.5" y="15" class="st1" width="5" height="5"/>
			<rect x="81.5" y="15" class="st1" width="5" height="5"/>
			<rect x="76.5" y="15" class="st1" width="5" height="5"/>
		</g>
		<g>
			<rect x="79" class="st2" width="5" height="5"/>
			<rect x="71.5" y="7.5" class="st2" width="5" height="5"/>
			<rect x="71.5" y="12.5" class="st2" width="5" height="5"/>
			<rect x="74" y="17.5" class="st2" width="5" height="5"/>
			<rect x="89" y="17.5" class="st2" width="5" height="5"/>
			<rect x="79" y="20" class="st2" width="5" height="5"/>
			<rect x="84" y="20" class="st2" width="5" height="5"/>
			<rect x="84" y="20" class="st2" width="5" height="5"/>
			<rect x="91.5" y="7.5" class="st2" width="5" height="5"/>
			<rect x="91.5" y="12.5" class="st2" width="5" height="5"/>
			<rect x="74" y="2.5" class="st2" width="5" height="5"/>
			<rect x="89" y="2.5" class="st2" width="5" height="5"/>
			<rect x="84" class="st2" width="5" height="5"/>
		</g>
	</g>
	<g>
		<g>
			<rect x="106.5" y="5" class="st0" width="5" height="5"/>
			<rect x="111.5" y="5" class="st0" width="5" height="5"/>
			<rect x="116.5" y="5" class="st0" width="5" height="5"/>
			<rect x="106.5" y="10" class="st0" width="5" height="5"/>
			<rect x="111.5" y="10" class="st0" width="5" height="5"/>
			<rect x="116.5" y="10" class="st0" width="5" height="5"/>
			<rect x="116.5" y="15" class="st1" width="5" height="5"/>
			<rect x="111.5" y="15" class="st1" width="5" height="5"/>
			<rect x="106.5" y="15" class="st1" width="5" height="5"/>
		</g>
		<g>
			<rect x="109" class="st2" width="5" height="5"/>
			<rect x="101.5" y="7.5" class="st2" width="5" height="5"/>
			<rect x="101.5" y="12.5" class="st2" width="5" height="5"/>
			<rect x="104" y="17.5" class="st2" width="5" height="5"/>
			<rect x="119" y="17.5" class="st2" width="5" height="5"/>
			<rect x="109" y="20" class="st2" width="5" height="5"/>
			<rect x="114" y="20" class="st2" width="5" height="5"/>
			<rect x="114" y="20" class="st2" width="5" height="5"/>
			<rect x="121.5" y="7.5" class="st2" width="5" height="5"/>
			<rect x="121.5" y="12.5" class="st2" width="5" height="5"/>
			<rect x="104" y="2.5" class="st2" width="5" height="5"/>
			<rect x="119" y="2.5" class="st2" width="5" height="5"/>
			<rect x="114" class="st2" width="5" height="5"/>
		</g>
	</g>
	<g>
		<g>
			<rect x="136.5" y="5" class="st0" width="5" height="5"/>
			<rect x="141.5" y="5" class="st0" width="5" height="5"/>
			<rect x="146.5" y="5" class="st0" width="5" height="5"/>
			<rect x="136.5" y="10" class="st0" width="5" height="5"/>
			<rect x="141.5" y="10" class="st0" width="5" height="5"/>
			<rect x="146.5" y="10" class="st0" width="5" height="5"/>
			<rect x="146.5" y="15" class="st1" width="5" height="5"/>
			<rect x="141.5" y="15" class="st1" width="5" height="5"/>
			<rect x="136.5" y="15" class="st1" width="5" height="5"/>
		</g>
		<g>
			<rect x="139" class="st2" width="5" height="5"/>
			<rect x="131.5" y="7.5" class="st2" width="5" height="5"/>
			<rect x="131.5" y="12.5" class="st2" width="5" height="5"/>
			<rect x="134" y="17.5" class="st2" width="5" height="5"/>
			<rect x="149" y="17.5" class="st2" width="5" height="5"/>
			<rect x="139" y="20" class="st2" width="5" height="5"/>
			<rect x="144" y="20" class="st2" width="5" height="5"/>
			<rect x="144" y="20" class="st2" width="5" height="5"/>
			<rect x="151.5" y="7.5" class="st2" width="5" height="5"/>
			<rect x="151.5" y="12.5" class="st2" width="5" height="5"/>
			<rect x="134" y="2.5" class="st2" width="5" height="5"/>
			<rect x="149" y="2.5" class="st2" width="5" height="5"/>
			<rect x="144" class="st2" width="5" height="5"/>
		</g>
	</g>
	<g>
		<g>
			<rect x="166.5" y="5" class="st0" width="5" height="5"/>
			<rect x="171.5" y="5" class="st0" width="5" height="5"/>
			<rect x="176.5" y="5" class="st0" width="5" height="5"/>
			<rect x="166.5" y="10" class="st0" width="5" height="5"/>
			<rect x="171.5" y="10" class="st0" width="5" height="5"/>
			<rect x="176.5" y="10" class="st0" width="5" height="5"/>
			<rect x="176.5" y="15" class="st1" width="5" height="5"/>
			<rect x="171.5" y="15" class="st1" width="5" height="5"/>
			<rect x="166.5" y="15" class="st1" width="5" height="5"/>
		</g>
		<g>
			<rect x="169" class="st2" width="5" height="5"/>
			<rect x="161.5" y="7.5" class="st2" width="5" height="5"/>
			<rect x="161.5" y="12.5" class="st2" width="5" height="5"/>
			<rect x="164" y="17.5" class="st2" width="5" height="5"/>
			<rect x="179" y="17.5" class="st2" width="5" height="5"/>
			<rect x="169" y="20" class="st2" width="5" height="5"/>
			<rect x="174" y="20" class="st2" width="5" height="5"/>
			<rect x="174" y="20" class="st2" width="5" height="5"/>
			<rect x="181.5" y="7.5" class="st2" width="5" height="5"/>
			<rect x="181.5" y="12.5" class="st2" width="5" height="5"/>
			<rect x="164" y="2.5" class="st2" width="5" height="5"/>
			<rect x="179" y="2.5" class="st2" width="5" height="5"/>
			<rect x="174" class="st2" width="5" height="5"/>
		</g>
	</g>
	<g>
		<rect y="5" class="st2" width="5" height="5"/>
		<rect y="10" class="st2" width="5" height="5"/>
		<rect y="15" class="st2" width="5" height="5"/>
		<rect y="20" class="st2" width="5" height="5"/>
		<rect y="25" class="st2" width="5" height="5"/>
		<rect x="27.5" y="30" class="st2" width="5" height="5"/>
		<rect x="32.5" y="30" class="st2" width="5" height="5"/>
		<rect x="37.5" y="30" class="st2" width="5" height="5"/>
		<rect x="42.5" y="30" class="st2" width="5" height="5"/>
		<rect x="47.5" y="30" class="st2" width="5" height="5"/>
		<rect x="2.5" y="30" class="st2" width="5" height="5"/>
		<rect x="7.5" y="30" class="st2" width="5" height="5"/>
		<rect x="12.5" y="30" class="st2" width="5" height="5"/>
		<rect x="17.5" y="30" class="st2" width="5" height="5"/>
		<rect x="22.5" y="30" class="st2" width="5" height="5"/>
		<rect x="52.5" y="30" class="st2" width="5" height="5"/>
		<rect x="57.5" y="30" class="st2" width="5" height="5"/>
		<rect x="62.5" y="30" class="st2" width="5" height="5"/>
		<rect x="67.5" y="30" class="st2" width="5" height="5"/>
		<rect x="72.5" y="30" class="st2" width="5" height="5"/>
		<rect x="77.5" y="30" class="st2" width="5" height="5"/>
		<rect x="82.5" y="30" class="st2" width="5" height="5"/>
		<rect x="87.5" y="30" class="st2" width="5" height="5"/>
		<rect x="92.5" y="30" class="st2" width="5" height="5"/>
		<rect x="97.5" y="30" class="st2" width="5" height="5"/>
		<rect x="102.5" y="30" class="st2" width="5" height="5"/>
		<rect x="107.5" y="30" class="st2" width="5" height="5"/>
		<rect x="112.5" y="30" class="st2" width="5" height="5"/>
		<rect x="117.5" y="30" class="st2" width="5" height="5"/>
		<rect x="122.5" y="30" class="st2" width="5" height="5"/>
		<rect x="127.5" y="30" class="st2" width="5" height="5"/>
		<rect x="132.5" y="30" class="st2" width="5" height="5"/>
		<rect x="137.5" y="30" class="st2" width="5" height="5"/>
		<rect x="142.5" y="30" class="st2" width="5" height="5"/>
		<rect x="147.5" y="30" class="st2" width="5" height="5"/>
		<rect x="152.5" y="30" class="st2" width="5" height="5"/>
		<rect x="157.5" y="30" class="st2" width="5" height="5"/>
		<rect x="162.5" y="30" class="st2" width="5" height="5"/>
		<rect x="167.5" y="30" class="st2" width="5" height="5"/>
		<rect x="172.5" y="30" class="st2" width="5" height="5"/>
		<rect x="177.5" y="30" class="st2" width="5" height="5"/>
		<rect x="182.5" y="30" class="st2" width="5" height="5"/>
		<rect x="187.5" y="30" class="st2" width="5" height="5"/>
		<rect x="192.5" y="30" class="st2" width="5" height="5"/>
		<rect x="197.5" y="30" class="st2" width="5" height="5"/>
		<rect x="202.5" y="30" class="st2" width="5" height="5"/>
		<rect x="207.5" y="30" class="st2" width="5" height="5"/>
		<rect x="202.5" y="25" class="st2" width="5" height="5"/>
		<rect x="197.5" y="25" class="st2" width="5" height="5"/>
		<rect x="197.5" y="20" class="st2" width="5" height="5"/>
		<rect x="192.5" y="25" class="st2" width="5" height="5"/>
		<rect x="192.5" y="20" class="st2" width="5" height="5"/>
		<rect x="192.5" y="20" class="st2" width="5" height="5"/>
		<rect x="192.5" y="15" class="st2" width="5" height="5"/>
	</g>
</g>
</svg>
