<!-- Generator: Adobe Illustrator 24.1.0, SVG Export Plug-In  -->
<svg version="1.1" xmlns="http://www.w3.org/2000/svg" xmlns:xlink="http://www.w3.org/1999/xlink" x="0px" y="0px" width="150px"
	 height="155px" viewBox="0 0 150 155" style="enable-background:new 0 0 150 155;" xml:space="preserve">
<style type="text/css">
	.st0{fill:#808080;}
	.st1{fill:#333333;}
	.st2{fill:#F2F2F2;}
	.st3{fill:#FFFFFF;}
	.st4{fill:#666666;}
</style>
<defs>
</defs>
<g>
	<rect x="75" width="5" height="5"/>
	<rect x="80" width="5" height="5"/>
	<rect x="65" width="5" height="5"/>
	<rect x="70" width="5" height="5"/>
	<rect x="75" y="5" class="st0" width="5" height="5"/>
	<rect x="80" y="5" class="st0" width="5" height="5"/>
	<rect x="85" y="5" width="5" height="5"/>
	<rect x="90" y="5" width="5" height="5"/>
	<rect x="55" y="5" width="5" height="5"/>
	<rect x="60" y="5" width="5" height="5"/>
	<rect x="65" y="5" class="st0" width="5" height="5"/>
	<rect x="70" y="5" class="st0" width="5" height="5"/>
	<rect x="75" y="10" class="st0" width="5" height="5"/>
	<rect x="80" y="10" class="st0" width="5" height="5"/>
	<rect x="85" y="10" class="st0" width="5" height="5"/>
	<rect x="90" y="10" class="st0" width="5" height="5"/>
	<rect x="95" y="10" width="5" height="5"/>
	<rect x="45" y="10" width="5" height="5"/>
	<rect x="50" y="10" width="5" height="5"/>
	<rect x="55" y="10" width="5" height="5"/>
	<rect x="60" y="10" class="st0" width="5" height="5"/>
	<rect x="65" y="10" class="st0" width="5" height="5"/>
	<rect x="70" y="10" class="st0" width="5" height="5"/>
	<rect x="75" y="15" class="st1" width="5" height="5"/>
	<rect x="80" y="15" class="st0" width="5" height="5"/>
	<rect x="85" y="15" class="st0" width="5" height="5"/>
	<rect x="90" y="15" class="st0" width="5" height="5"/>
	<rect x="95" y="15" class="st0" width="5" height="5"/>
	<rect x="100" y="15" width="5" height="5"/>
	<rect x="35" y="15" width="5" height="5"/>
	<rect x="40" y="15" width="5" height="5"/>
	<rect x="45" y="15" class="st1" width="5" height="5"/>
	<rect x="50" y="15" class="st1" width="5" height="5"/>
	<rect x="55" y="15" class="st1" width="5" height="5"/>
	<rect x="60" y="15" class="st1" width="5" height="5"/>
	<rect x="65" y="15" class="st1" width="5" height="5"/>
	<rect x="70" y="15" class="st0" width="5" height="5"/>
	<rect x="75" y="20" class="st0" width="5" height="5"/>
	<rect x="80" y="20" class="st1" width="5" height="5"/>
	<rect x="85" y="20" class="st0" width="5" height="5"/>
	<rect x="90" y="20" class="st0" width="5" height="5"/>
	<rect x="95" y="20" class="st0" width="5" height="5"/>
	<rect x="100" y="20" width="5" height="5"/>
	<rect x="30" y="20" width="5" height="5"/>
	<rect x="35" y="20" class="st1" width="5" height="5"/>
	<rect x="40" y="20" class="st1" width="5" height="5"/>
	<rect x="45" y="20" class="st1" width="5" height="5"/>
	<rect x="50" y="20" class="st1" width="5" height="5"/>
	<rect x="55" y="20" class="st1" width="5" height="5"/>
	<rect x="60" y="20" class="st1" width="5" height="5"/>
	<rect x="65" y="20" class="st1" width="5" height="5"/>
	<rect x="70" y="20" class="st1" width="5" height="5"/>
	<rect x="75" y="25" class="st1" width="5" height="5"/>
	<rect x="80" y="25" class="st0" width="5" height="5"/>
	<rect x="85" y="25" class="st1" width="5" height="5"/>
	<rect x="90" y="25" class="st0" width="5" height="5"/>
	<rect x="95" y="25" class="st0" width="5" height="5"/>
	<rect x="100" y="25" class="st0" width="5" height="5"/>
	<rect x="105" y="20" width="5" height="5"/>
	<rect x="105" y="25" width="5" height="5"/>
	<rect x="25" y="25" width="5" height="5"/>
	<rect x="30" y="25" class="st1" width="5" height="5"/>
	<rect x="35" y="25" class="st1" width="5" height="5"/>
	<rect x="40" y="25" class="st1" width="5" height="5"/>
	<rect x="45" y="25" class="st1" width="5" height="5"/>
	<rect x="50" y="25" class="st1" width="5" height="5"/>
	<rect x="55" y="25" class="st1" width="5" height="5"/>
	<rect x="60" y="25" class="st1" width="5" height="5"/>
	<rect x="65" y="25" class="st1" width="5" height="5"/>
	<rect x="70" y="25" class="st1" width="5" height="5"/>
	<rect x="75" y="30" class="st0" width="5" height="5"/>
	<rect x="80" y="30" class="st1" width="5" height="5"/>
	<rect x="85" y="30" class="st0" width="5" height="5"/>
	<rect x="90" y="30" class="st1" width="5" height="5"/>
	<rect x="95" y="30" class="st0" width="5" height="5"/>
	<rect x="100" y="30" class="st0" width="5" height="5"/>
	<rect x="105" y="30" width="5" height="5"/>
	<rect x="110" y="30" width="5" height="5"/>
	<rect x="115" y="30" width="5" height="5"/>
	<rect x="120" y="30" width="5" height="5"/>
	<rect x="25" y="30" width="5" height="5"/>
	<rect x="30" y="30" class="st1" width="5" height="5"/>
	<rect x="35" y="30" class="st1" width="5" height="5"/>
	<rect x="40" y="30" class="st1" width="5" height="5"/>
	<rect x="45" y="30" class="st1" width="5" height="5"/>
	<rect x="50" y="30" class="st1" width="5" height="5"/>
	<rect x="55" y="30" class="st1" width="5" height="5"/>
	<rect x="60" y="30" class="st1" width="5" height="5"/>
	<rect x="65" y="30" class="st1" width="5" height="5"/>
	<rect x="70" y="30" class="st1" width="5" height="5"/>
	<rect x="75" y="35" class="st1" width="5" height="5"/>
	<rect x="80" y="35" class="st1" width="5" height="5"/>
	<rect x="85" y="35" class="st1" width="5" height="5"/>
	<rect x="90" y="35" class="st1" width="5" height="5"/>
	<rect x="95" y="35" class="st1" width="5" height="5"/>
	<rect x="100" y="35" class="st1" width="5" height="5"/>
	<rect x="105" y="35" class="st2" width="5" height="5"/>
	<rect x="110" y="35" class="st2" width="5" height="5"/>
	<rect x="115" y="35" class="st2" width="5" height="5"/>
	<rect x="120" y="35" class="st2" width="5" height="5"/>
	<rect x="125" y="35" width="5" height="5"/>
	<rect x="25" y="35" width="5" height="5"/>
	<rect x="30" y="35" class="st1" width="5" height="5"/>
	<rect x="35" y="35" class="st1" width="5" height="5"/>
	<rect x="40" y="35" class="st1" width="5" height="5"/>
	<rect x="45" y="35" class="st1" width="5" height="5"/>
	<rect x="50" y="35" class="st1" width="5" height="5"/>
	<rect x="55" y="35" class="st1" width="5" height="5"/>
	<rect x="60" y="35" class="st1" width="5" height="5"/>
	<rect x="65" y="35" class="st1" width="5" height="5"/>
	<rect x="70" y="35" class="st1" width="5" height="5"/>
	<rect x="75" y="40" class="st1" width="5" height="5"/>
	<rect x="80" y="40" class="st1" width="5" height="5"/>
	<rect x="85" y="40" class="st1" width="5" height="5"/>
	<rect x="90" y="40" class="st1" width="5" height="5"/>
	<rect x="95" y="40" class="st3" width="5" height="5"/>
	<rect x="100" y="40" class="st2" width="5" height="5"/>
	<rect x="105" y="40" class="st2" width="5" height="5"/>
	<rect x="110" y="40" class="st2" width="5" height="5"/>
	<rect x="115" y="40" width="5" height="5"/>
	<rect x="120" y="40" width="5" height="5"/>
	<rect x="25" y="40" width="5" height="5"/>
	<rect x="30" y="40" class="st1" width="5" height="5"/>
	<rect x="35" y="40" width="5" height="5"/>
	<rect x="40" y="40" width="5" height="5"/>
	<rect x="45" y="40" width="5" height="5"/>
	<rect x="50" y="40" width="5" height="5"/>
	<rect x="55" y="40" class="st1" width="5" height="5"/>
	<rect x="60" y="40" class="st1" width="5" height="5"/>
	<rect x="65" y="40" class="st1" width="5" height="5"/>
	<rect x="70" y="40" class="st1" width="5" height="5"/>
	<rect x="75" y="45" width="5" height="5"/>
	<rect x="80" y="45" width="5" height="5"/>
	<rect x="85" y="45" width="5" height="5"/>
	<rect x="90" y="45" width="5" height="5"/>
	<rect x="95" y="45" width="5" height="5"/>
	<rect x="100" y="45" width="5" height="5"/>
	<rect x="105" y="45" width="5" height="5"/>
	<rect x="110" y="45" width="5" height="5"/>
	<rect x="30" y="45" width="5" height="5"/>
	<rect x="35" y="45" class="st1" width="5" height="5"/>
	<rect x="40" y="45" class="st1" width="5" height="5"/>
	<rect x="45" y="45" class="st1" width="5" height="5"/>
	<rect x="50" y="45" class="st1" width="5" height="5"/>
	<rect x="55" y="45" class="st1" width="5" height="5"/>
	<rect x="60" y="45" class="st1" width="5" height="5"/>
	<rect x="65" y="45" class="st1" width="5" height="5"/>
	<rect x="70" y="45" class="st1" width="5" height="5"/>
	<rect x="75" y="50" width="5" height="5"/>
	<rect x="80" y="50" width="5" height="5"/>
	<rect x="85" y="50" width="5" height="5"/>
	<rect x="90" y="50" class="st2" width="5" height="5"/>
	<rect x="95" y="50" width="5" height="5"/>
	<rect x="100" y="50" class="st4" width="5" height="5"/>
	<rect x="105" y="50" width="5" height="5"/>
	<rect x="110" y="50" width="5" height="5"/>
	<rect x="30" y="50" width="5" height="5"/>
	<rect x="35" y="50" width="5" height="5"/>
	<rect x="40" y="50" width="5" height="5"/>
	<rect x="45" y="50" width="5" height="5"/>
	<rect x="50" y="50" width="5" height="5"/>
	<rect x="55" y="50" width="5" height="5"/>
	<rect x="60" y="50" width="5" height="5"/>
	<rect x="65" y="50" width="5" height="5"/>
	<rect x="70" y="50" width="5" height="5"/>
	<rect x="75" y="55" width="5" height="5"/>
	<rect x="80" y="55" width="5" height="5"/>
	<rect x="85" y="55" width="5" height="5"/>
	<rect x="90" y="55" class="st4" width="5" height="5"/>
	<rect x="95" y="55" width="5" height="5"/>
	<rect x="100" y="55" class="st2" width="5" height="5"/>
	<rect x="105" y="55" width="5" height="5"/>
	<rect x="110" y="55" class="st2" width="5" height="5"/>
	<rect x="30" y="55" width="5" height="5"/>
	<rect x="35" y="55" width="5" height="5"/>
	<rect x="40" y="55" width="5" height="5"/>
	<rect x="45" y="55" width="5" height="5"/>
	<rect x="50" y="55" width="5" height="5"/>
	<rect x="55" y="55" width="5" height="5"/>
	<rect x="60" y="55" width="5" height="5"/>
	<rect x="65" y="55" width="5" height="5"/>
	<rect x="70" y="55" width="5" height="5"/>
	<rect x="75" y="60" width="5" height="5"/>
	<rect x="80" y="60" width="5" height="5"/>
	<rect x="85" y="60" width="5" height="5"/>
	<rect x="90" y="60" class="st4" width="5" height="5"/>
	<rect x="95" y="60" width="5" height="5"/>
	<rect x="100" y="60" class="st2" width="5" height="5"/>
	<rect x="105" y="60" class="st2" width="5" height="5"/>
	<rect x="110" y="60" width="5" height="5"/>
	<rect x="30" y="60" width="5" height="5"/>
	<rect x="35" y="60" width="5" height="5"/>
	<rect x="40" y="60" width="5" height="5"/>
	<rect x="45" y="60" width="5" height="5"/>
	<rect x="50" y="60" width="5" height="5"/>
	<rect x="55" y="60" width="5" height="5"/>
	<rect x="60" y="60" width="5" height="5"/>
	<rect x="65" y="60" width="5" height="5"/>
	<rect x="70" y="60" width="5" height="5"/>
	<rect x="75" y="65" width="5" height="5"/>
	<rect x="80" y="65" width="5" height="5"/>
	<rect x="85" y="65" class="st1" width="5" height="5"/>
	<rect x="90" y="65" width="5" height="5"/>
	<rect x="95" y="65" class="st4" width="5" height="5"/>
	<rect x="100" y="65" class="st2" width="5" height="5"/>
	<rect x="105" y="65" class="st2" width="5" height="5"/>
	<rect x="110" y="65" width="5" height="5"/>
	<rect x="35" y="65" width="5" height="5"/>
	<rect x="40" y="65" width="5" height="5"/>
	<rect x="45" y="65" width="5" height="5"/>
	<rect x="50" y="65" width="5" height="5"/>
	<rect x="55" y="65" width="5" height="5"/>
	<rect x="60" y="65" width="5" height="5"/>
	<rect x="65" y="65" width="5" height="5"/>
	<rect x="70" y="65" width="5" height="5"/>
	<rect x="75" y="70" class="st1" width="5" height="5"/>
	<rect x="80" y="70" class="st4" width="5" height="5"/>
	<rect x="85" y="70" class="st4" width="5" height="5"/>
	<rect x="90" y="70" class="st4" width="5" height="5"/>
	<rect x="95" y="70" class="st4" width="5" height="5"/>
	<rect x="100" y="70" class="st4" width="5" height="5"/>
	<rect x="105" y="70" width="5" height="5"/>
	<rect x="35" y="70" width="5" height="5"/>
	<rect x="40" y="70" class="st1" width="5" height="5"/>
	<rect x="45" y="70" width="5" height="5"/>
	<rect x="50" y="70" width="5" height="5"/>
	<rect x="55" y="70" width="5" height="5"/>
	<rect x="60" y="70" width="5" height="5"/>
	<rect x="65" y="70" width="5" height="5"/>
	<rect x="70" y="70" width="5" height="5"/>
	<rect x="75" y="75" width="5" height="5"/>
	<rect x="80" y="75" width="5" height="5"/>
	<rect x="85" y="75" class="st1" width="5" height="5"/>
	<rect x="90" y="75" class="st1" width="5" height="5"/>
	<rect x="95" y="75" width="5" height="5"/>
	<rect x="100" y="75" width="5" height="5"/>
	<rect x="40" y="75" width="5" height="5"/>
	<rect x="45" y="75" class="st1" width="5" height="5"/>
	<rect x="50" y="75" width="5" height="5"/>
	<rect x="55" y="75" width="5" height="5"/>
	<rect x="60" y="75" width="5" height="5"/>
	<rect x="65" y="75" width="5" height="5"/>
	<rect x="70" y="75" width="5" height="5"/>
	<rect x="75" y="80" width="5" height="5"/>
	<rect x="80" y="80" width="5" height="5"/>
	<rect x="85" y="80" width="5" height="5"/>
	<rect x="90" y="80" width="5" height="5"/>
	<rect x="20" y="80" width="5" height="5"/>
	<rect x="25" y="80" width="5" height="5"/>
	<rect x="30" y="80" width="5" height="5"/>
	<rect x="35" y="80" width="5" height="5"/>
	<rect x="40" y="80" width="5" height="5"/>
	<rect x="45" y="80" width="5" height="5"/>
	<rect x="50" y="80" width="5" height="5"/>
	<rect x="55" y="80" width="5" height="5"/>
	<rect x="60" y="80" class="st1" width="5" height="5"/>
	<rect x="65" y="80" class="st1" width="5" height="5"/>
	<rect x="70" y="80" class="st1" width="5" height="5"/>
	<rect x="75" y="85" class="st1" width="5" height="5"/>
	<rect x="80" y="85" class="st1" width="5" height="5"/>
	<rect x="85" y="85" width="5" height="5"/>
	<rect x="90" y="85" width="5" height="5"/>
	<rect x="15" y="85" width="5" height="5"/>
	<rect x="20" y="85" width="5" height="5"/>
	<rect x="25" y="85" class="st4" width="5" height="5"/>
	<rect x="30" y="85" class="st4" width="5" height="5"/>
	<rect x="35" y="85" class="st4" width="5" height="5"/>
	<rect x="40" y="85" class="st4" width="5" height="5"/>
	<rect x="45" y="85" class="st4" width="5" height="5"/>
	<rect x="50" y="85" class="st4" width="5" height="5"/>
	<rect x="55" y="85" class="st4" width="5" height="5"/>
	<rect x="60" y="85" width="5" height="5"/>
	<rect x="65" y="85" width="5" height="5"/>
	<rect x="70" y="85" width="5" height="5"/>
	<rect x="75" y="90" width="5" height="5"/>
	<rect x="80" y="90" class="st1" width="5" height="5"/>
	<rect x="85" y="90" width="5" height="5"/>
	<rect x="90" y="90" class="st2" width="5" height="5"/>
	<rect x="95" y="90" width="5" height="5"/>
	<rect x="100" y="90" width="5" height="5"/>
	<rect x="10" y="90" width="5" height="5"/>
	<rect x="15" y="90" class="st4" width="5" height="5"/>
	<rect x="20" y="90" class="st1" width="5" height="5"/>
	<rect x="25" y="90" class="st4" width="5" height="5"/>
	<rect x="30" y="90" class="st4" width="5" height="5"/>
	<rect x="35" y="90" class="st4" width="5" height="5"/>
	<rect x="40" y="90" class="st4" width="5" height="5"/>
	<rect x="45" y="90" class="st4" width="5" height="5"/>
	<rect x="50" y="90" class="st4" width="5" height="5"/>
	<rect x="55" y="90" class="st4" width="5" height="5"/>
	<rect x="60" y="90" class="st4" width="5" height="5"/>
	<rect x="65" y="90" class="st4" width="5" height="5"/>
	<rect x="70" y="90" width="5" height="5"/>
	<rect x="75" y="95" class="st1" width="5" height="5"/>
	<rect x="80" y="95" width="5" height="5"/>
	<rect x="85" y="95" class="st4" width="5" height="5"/>
	<rect x="90" y="95" class="st2" width="5" height="5"/>
	<rect x="95" y="95" class="st2" width="5" height="5"/>
	<rect x="100" y="95" class="st2" width="5" height="5"/>
	<rect x="105" y="95" width="5" height="5"/>
	<rect x="10" y="95" width="5" height="5"/>
	<rect x="15" y="95" class="st1" width="5" height="5"/>
	<rect x="20" y="95" class="st4" width="5" height="5"/>
	<rect x="25" y="95" class="st1" width="5" height="5"/>
	<rect x="30" y="95" class="st4" width="5" height="5"/>
	<rect x="35" y="95" class="st4" width="5" height="5"/>
	<rect x="40" y="95" class="st1" width="5" height="5"/>
	<rect x="45" y="95" class="st4" width="5" height="5"/>
	<rect x="50" y="95" class="st1" width="5" height="5"/>
	<rect x="55" y="95" class="st4" width="5" height="5"/>
	<rect x="60" y="95" width="5" height="5"/>
	<rect x="65" y="95" width="5" height="5"/>
	<rect x="70" y="95" width="5" height="5"/>
	<rect x="75" y="100" class="st1" width="5" height="5"/>
	<rect x="80" y="100" width="5" height="5"/>
	<rect x="85" y="100" class="st4" width="5" height="5"/>
	<rect x="90" y="100" class="st2" width="5" height="5"/>
	<rect x="95" y="100" class="st2" width="5" height="5"/>
	<rect x="100" y="100" width="5" height="5"/>
	<rect x="105" y="100" width="5" height="5"/>
	<rect x="5" y="100" width="5" height="5"/>
	<rect x="10" y="100" class="st1" width="5" height="5"/>
	<rect x="15" y="100" class="st1" width="5" height="5"/>
	<rect x="20" y="100" width="5" height="5"/>
	<rect x="25" y="100" class="st1" width="5" height="5"/>
	<rect x="30" y="100" width="5" height="5"/>
	<rect x="35" y="100" class="st1" width="5" height="5"/>
	<rect x="40" y="100" class="st4" width="5" height="5"/>
	<rect x="45" y="100" class="st1" width="5" height="5"/>
	<rect x="50" y="100" class="st4" width="5" height="5"/>
	<rect x="55" y="100" width="5" height="5"/>
	<rect x="60" y="100" width="5" height="5"/>
	<rect x="65" y="100" width="5" height="5"/>
	<rect x="70" y="100" class="st1" width="5" height="5"/>
	<rect x="75" y="105" class="st1" width="5" height="5"/>
	<rect x="80" y="105" width="5" height="5"/>
	<rect x="85" y="105" class="st4" width="5" height="5"/>
	<rect x="90" y="105" class="st2" width="5" height="5"/>
	<rect x="95" y="105" class="st2" width="5" height="5"/>
	<rect x="100" y="105" width="5" height="5"/>
	<rect x="105" y="105" class="st2" width="5" height="5"/>
	<rect x="110" y="105" width="5" height="5"/>
	<rect x="125" y="105" width="5" height="5"/>
	<rect x="130" y="105" width="5" height="5"/>
	<rect x="135" y="105" width="5" height="5"/>
	<rect x="5" y="105" width="5" height="5"/>
	<rect x="10" y="105" width="5" height="5"/>
	<rect x="15" y="105" width="5" height="5"/>
	<rect x="20" y="105" class="st2" width="5" height="5"/>
	<rect x="25" y="105" class="st2" width="5" height="5"/>
	<rect x="30" y="105" width="5" height="5"/>
	<rect x="35" y="105" class="st1" width="5" height="5"/>
	<rect x="40" y="105" class="st1" width="5" height="5"/>
	<rect x="45" y="105" class="st1" width="5" height="5"/>
	<rect x="50" y="105" class="st1" width="5" height="5"/>
	<rect x="55" y="105" width="5" height="5"/>
	<rect x="60" y="105" width="5" height="5"/>
	<rect x="65" y="105" width="5" height="5"/>
	<rect x="70" y="105" class="st1" width="5" height="5"/>
	<rect x="75" y="110" class="st1" width="5" height="5"/>
	<rect x="80" y="110" width="5" height="5"/>
	<rect x="85" y="110" class="st4" width="5" height="5"/>
	<rect x="90" y="110" class="st4" width="5" height="5"/>
	<rect x="95" y="110" width="5" height="5"/>
	<rect x="100" y="110" class="st2" width="5" height="5"/>
	<rect x="105" y="110" class="st2" width="5" height="5"/>
	<rect x="110" y="110" class="st2" width="5" height="5"/>
	<rect x="115" y="110" width="5" height="5"/>
	<rect x="120" y="110" width="5" height="5"/>
	<rect x="125" y="110" class="st2" width="5" height="5"/>
	<rect x="130" y="110" class="st2" width="5" height="5"/>
	<rect x="135" y="110" class="st2" width="5" height="5"/>
	<rect x="140" y="110" width="5" height="5"/>
	<rect y="110" width="5" height="5"/>
	<rect x="5" y="110" class="st2" width="5" height="5"/>
	<rect x="10" y="110" class="st1" width="5" height="5"/>
	<rect x="15" y="110" class="st1" width="5" height="5"/>
	<rect x="20" y="110" width="5" height="5"/>
	<rect x="25" y="110" width="5" height="5"/>
	<rect x="30" y="110" width="5" height="5"/>
	<rect x="35" y="110" width="5" height="5"/>
	<rect x="40" y="110" width="5" height="5"/>
	<rect x="45" y="110" width="5" height="5"/>
	<rect x="50" y="110" width="5" height="5"/>
	<rect x="55" y="110" width="5" height="5"/>
	<rect x="60" y="110" class="st1" width="5" height="5"/>
	<rect x="65" y="110" class="st1" width="5" height="5"/>
	<rect x="70" y="110" class="st1" width="5" height="5"/>
	<rect x="75" y="115" class="st1" width="5" height="5"/>
	<rect x="80" y="115" width="5" height="5"/>
	<rect x="85" y="115" class="st4" width="5" height="5"/>
	<rect x="90" y="115" width="5" height="5"/>
	<rect x="95" y="115" class="st4" width="5" height="5"/>
	<rect x="100" y="115" class="st2" width="5" height="5"/>
	<rect x="105" y="115" class="st2" width="5" height="5"/>
	<rect x="110" y="115" class="st2" width="5" height="5"/>
	<rect x="115" y="115" width="5" height="5"/>
	<rect x="120" y="115" width="5" height="5"/>
	<rect x="125" y="115" class="st2" width="5" height="5"/>
	<rect x="130" y="115" class="st2" width="5" height="5"/>
	<rect x="135" y="115" class="st2" width="5" height="5"/>
	<rect x="140" y="115" width="5" height="5"/>
	<rect y="115" width="5" height="5"/>
	<rect x="5" y="115" width="5" height="5"/>
	<rect x="10" y="115" class="st1" width="5" height="5"/>
	<rect x="15" y="115" class="st1" width="5" height="5"/>
	<rect x="20" y="115" class="st1" width="5" height="5"/>
	<rect x="25" y="115" class="st1" width="5" height="5"/>
	<rect x="30" y="115" class="st1" width="5" height="5"/>
	<rect x="35" y="115" class="st1" width="5" height="5"/>
	<rect x="40" y="115" class="st1" width="5" height="5"/>
	<rect x="45" y="115" width="5" height="5"/>
	<rect x="50" y="115" width="5" height="5"/>
	<rect x="55" y="115" width="5" height="5"/>
	<rect x="60" y="115" class="st1" width="5" height="5"/>
	<rect x="65" y="115" class="st1" width="5" height="5"/>
	<rect x="70" y="115" class="st1" width="5" height="5"/>
	<rect x="75" y="120" width="5" height="5"/>
	<rect x="80" y="120" class="st4" width="5" height="5"/>
	<rect x="85" y="120" class="st4" width="5" height="5"/>
	<rect x="90" y="120" width="5" height="5"/>
	<rect x="95" y="120" class="st4" width="5" height="5"/>
	<rect x="100" y="120" class="st4" width="5" height="5"/>
	<rect x="105" y="120" class="st2" width="5" height="5"/>
	<rect x="110" y="120" class="st2" width="5" height="5"/>
	<rect x="115" y="120" class="st2" width="5" height="5"/>
	<rect x="120" y="120" width="5" height="5"/>
	<rect x="125" y="120" width="5" height="5"/>
	<rect x="130" y="120" class="st2" width="5" height="5"/>
	<rect x="135" y="120" class="st2" width="5" height="5"/>
	<rect x="140" y="120" class="st2" width="5" height="5"/>
	<rect x="145" y="120" width="5" height="5"/>
	<rect y="120" width="5" height="5"/>
	<rect x="5" y="120" width="5" height="5"/>
	<rect x="10" y="120" class="st1" width="5" height="5"/>
	<rect x="15" y="120" class="st1" width="5" height="5"/>
	<rect x="20" y="120" class="st1" width="5" height="5"/>
	<rect x="25" y="120" class="st1" width="5" height="5"/>
	<rect x="30" y="120" class="st1" width="5" height="5"/>
	<rect x="35" y="120" class="st1" width="5" height="5"/>
	<rect x="40" y="120" class="st1" width="5" height="5"/>
	<rect x="45" y="120" class="st1" width="5" height="5"/>
	<rect x="50" y="120" width="5" height="5"/>
	<rect x="55" y="120" width="5" height="5"/>
	<rect x="60" y="120" class="st1" width="5" height="5"/>
	<rect x="65" y="120" class="st1" width="5" height="5"/>
	<rect x="70" y="120" class="st1" width="5" height="5"/>
	<rect x="75" y="125" width="5" height="5"/>
	<rect x="80" y="125" width="5" height="5"/>
	<rect x="85" y="125" width="5" height="5"/>
	<rect x="90" y="125" class="st4" width="5" height="5"/>
	<rect x="95" y="125" class="st4" width="5" height="5"/>
	<rect x="100" y="125" class="st4" width="5" height="5"/>
	<rect x="105" y="125" class="st4" width="5" height="5"/>
	<rect x="110" y="125" class="st2" width="5" height="5"/>
	<rect x="115" y="125" width="5" height="5"/>
	<rect x="120" y="125" width="5" height="5"/>
	<rect x="125" y="125" class="st2" width="5" height="5"/>
	<rect x="130" y="125" width="5" height="5"/>
	<rect x="135" y="125" class="st2" width="5" height="5"/>
	<rect x="140" y="125" class="st2" width="5" height="5"/>
	<rect x="145" y="125" width="5" height="5"/>
	<rect y="125" width="5" height="5"/>
	<rect x="5" y="125" width="5" height="5"/>
	<rect x="10" y="125" class="st1" width="5" height="5"/>
	<rect x="15" y="125" class="st1" width="5" height="5"/>
	<rect x="20" y="125" class="st1" width="5" height="5"/>
	<rect x="25" y="125" class="st1" width="5" height="5"/>
	<rect x="30" y="125" class="st1" width="5" height="5"/>
	<rect x="35" y="125" class="st1" width="5" height="5"/>
	<rect x="40" y="125" class="st1" width="5" height="5"/>
	<rect x="45" y="125" class="st1" width="5" height="5"/>
	<rect x="50" y="125" width="5" height="5"/>
	<rect x="55" y="125" width="5" height="5"/>
	<rect x="60" y="125" class="st1" width="5" height="5"/>
	<rect x="65" y="125" class="st1" width="5" height="5"/>
	<rect x="70" y="125" class="st1" width="5" height="5"/>
	<rect x="75" y="130" class="st1" width="5" height="5"/>
	<rect x="80" y="130" class="st1" width="5" height="5"/>
	<rect x="85" y="130" width="5" height="5"/>
	<rect x="90" y="130" class="st4" width="5" height="5"/>
	<rect x="95" y="130" class="st4" width="5" height="5"/>
	<rect x="100" y="130" class="st4" width="5" height="5"/>
	<rect x="105" y="130" class="st4" width="5" height="5"/>
	<rect x="110" y="130" class="st4" width="5" height="5"/>
	<rect x="115" y="130" class="st4" width="5" height="5"/>
	<rect x="120" y="130" width="5" height="5"/>
	<rect x="125" y="130" class="st2" width="5" height="5"/>
	<rect x="130" y="130" class="st2" width="5" height="5"/>
	<rect x="135" y="130" width="5" height="5"/>
	<rect x="140" y="130" class="st1" width="5" height="5"/>
	<rect x="145" y="130" width="5" height="5"/>
	<rect x="5" y="130" width="5" height="5"/>
	<rect x="10" y="130" class="st1" width="5" height="5"/>
	<rect x="15" y="130" class="st1" width="5" height="5"/>
	<rect x="20" y="130" class="st1" width="5" height="5"/>
	<rect x="25" y="130" class="st1" width="5" height="5"/>
	<rect x="30" y="130" class="st1" width="5" height="5"/>
	<rect x="35" y="130" class="st1" width="5" height="5"/>
	<rect x="40" y="130" class="st1" width="5" height="5"/>
	<rect x="45" y="130" class="st1" width="5" height="5"/>
	<rect x="50" y="130" width="5" height="5"/>
	<rect x="55" y="130" width="5" height="5"/>
	<rect x="60" y="130" class="st1" width="5" height="5"/>
	<rect x="65" y="130" class="st1" width="5" height="5"/>
	<rect x="70" y="130" width="5" height="5"/>
	<rect x="75" y="135" class="st1" width="5" height="5"/>
	<rect x="80" y="135" width="5" height="5"/>
	<rect x="85" y="135" class="st4" width="5" height="5"/>
	<rect x="90" y="135" width="5" height="5"/>
	<rect x="95" y="135" class="st4" width="5" height="5"/>
	<rect x="100" y="135" class="st4" width="5" height="5"/>
	<rect x="105" y="135" class="st4" width="5" height="5"/>
	<rect x="110" y="135" class="st4" width="5" height="5"/>
	<rect x="115" y="135" class="st4" width="5" height="5"/>
	<rect x="120" y="135" width="5" height="5"/>
	<rect x="125" y="135" class="st2" width="5" height="5"/>
	<rect x="130" y="135" width="5" height="5"/>
	<rect x="135" y="135" width="5" height="5"/>
	<rect x="140" y="135" width="5" height="5"/>
	<rect x="5" y="135" width="5" height="5"/>
	<rect x="10" y="135" class="st1" width="5" height="5"/>
	<rect x="15" y="135" class="st1" width="5" height="5"/>
	<rect x="20" y="135" class="st1" width="5" height="5"/>
	<rect x="25" y="135" class="st1" width="5" height="5"/>
	<rect x="30" y="135" class="st1" width="5" height="5"/>
	<rect x="35" y="135" class="st1" width="5" height="5"/>
	<rect x="40" y="135" class="st1" width="5" height="5"/>
	<rect x="45" y="135" class="st1" width="5" height="5"/>
	<rect x="50" y="135" class="st1" width="5" height="5"/>
	<rect x="55" y="135" width="5" height="5"/>
	<rect x="60" y="135" class="st1" width="5" height="5"/>
	<rect x="65" y="135" class="st1" width="5" height="5"/>
	<rect x="70" y="135" width="5" height="5"/>
	<rect x="75" y="140" width="5" height="5"/>
	<rect x="80" y="140" class="st4" width="5" height="5"/>
	<rect x="85" y="140" width="5" height="5"/>
	<rect x="95" y="140" width="5" height="5"/>
	<rect x="100" y="140" class="st4" width="5" height="5"/>
	<rect x="105" y="140" class="st4" width="5" height="5"/>
	<rect x="110" y="140" class="st4" width="5" height="5"/>
	<rect x="115" y="140" width="5" height="5"/>
	<rect x="120" y="140" width="5" height="5"/>
	<rect x="125" y="140" width="5" height="5"/>
	<rect x="10" y="140" width="5" height="5"/>
	<rect x="15" y="140" width="5" height="5"/>
	<rect x="20" y="140" class="st1" width="5" height="5"/>
	<rect x="25" y="140" class="st1" width="5" height="5"/>
	<rect x="30" y="140" class="st1" width="5" height="5"/>
	<rect x="35" y="140" class="st1" width="5" height="5"/>
	<rect x="40" y="140" class="st1" width="5" height="5"/>
	<rect x="45" y="140" class="st1" width="5" height="5"/>
	<rect x="50" y="140" class="st1" width="5" height="5"/>
	<rect x="55" y="140" class="st1" width="5" height="5"/>
	<rect x="60" y="140" width="5" height="5"/>
	<rect x="65" y="140" width="5" height="5"/>
	<rect x="70" y="140" class="st1" width="5" height="5"/>
	<rect x="75" y="150" class="st1" width="5" height="5"/>
	<rect x="80" y="150" width="5" height="5"/>
	<rect x="20" y="150" width="5" height="5"/>
	<rect x="25" y="150" width="5" height="5"/>
	<rect x="30" y="150" width="5" height="5"/>
	<rect x="35" y="150" width="5" height="5"/>
	<rect x="40" y="150" class="st1" width="5" height="5"/>
	<rect x="45" y="150" class="st1" width="5" height="5"/>
	<rect x="50" y="150" class="st1" width="5" height="5"/>
	<rect x="55" y="150" class="st1" width="5" height="5"/>
	<rect x="60" y="150" width="5" height="5"/>
	<rect x="65" y="150" class="st1" width="5" height="5"/>
	<rect x="70" y="150" class="st1" width="5" height="5"/>
	<rect x="20" y="145" width="5" height="5"/>
	<rect x="25" y="145" width="5" height="5"/>
	<rect x="30" y="145" width="5" height="5"/>
	<rect x="35" y="145" width="5" height="5"/>
	<rect x="40" y="145" width="5" height="5"/>
	<rect x="45" y="145" width="5" height="5"/>
	<rect x="50" y="145" width="5" height="5"/>
	<rect x="55" y="145" width="5" height="5"/>
	<rect x="60" y="145" class="st1" width="5" height="5"/>
	<rect x="65" y="145" width="5" height="5"/>
	<rect x="70" y="145" class="st1" width="5" height="5"/>
	<rect x="75" y="145" class="st1" width="5" height="5"/>
	<rect x="80" y="145" width="5" height="5"/>
	<rect x="100" y="145" width="5" height="5"/>
	<rect x="105" y="145" width="5" height="5"/>
	<rect x="110" y="145" width="5" height="5"/>
	<rect x="115" y="145" width="5" height="5"/>
</g>
</svg>
