<!-- Generator: Adobe Illustrator 24.1.0, SVG Export Plug-In  -->
<svg version="1.1" xmlns="http://www.w3.org/2000/svg" xmlns:xlink="http://www.w3.org/1999/xlink" x="0px" y="0px" width="212.5px"
	 height="35px" viewBox="0 0 212.5 35" style="enable-background:new 0 0 212.5 35;" xml:space="preserve">
<style type="text/css">
	.st0{fill:#808080;}
	.st1{fill:#B3B3B3;}
	.st2{fill:#E6E6E6;}
</style>
<defs>
</defs>
<g>
	<g>
		<rect x="207.5" y="5" class="st0" width="5" height="5"/>
		<rect x="207.5" y="10" class="st0" width="5" height="5"/>
		<rect x="207.5" y="15" class="st0" width="5" height="5"/>
		<rect x="207.5" y="20" class="st0" width="5" height="5"/>
		<rect x="207.5" y="25" class="st0" width="5" height="5"/>
		<rect x="45" y="30" class="st0" width="5" height="5"/>
		<rect x="50" y="30" class="st0" width="5" height="5"/>
		<rect x="55" y="30" class="st0" width="5" height="5"/>
		<rect x="60" y="30" class="st0" width="5" height="5"/>
		<rect x="65" y="30" class="st0" width="5" height="5"/>
		<rect x="20" y="30" class="st0" width="5" height="5"/>
		<rect x="25" y="30" class="st0" width="5" height="5"/>
		<rect x="30" y="30" class="st0" width="5" height="5"/>
		<rect x="35" y="30" class="st0" width="5" height="5"/>
		<rect x="40" y="30" class="st0" width="5" height="5"/>
		<rect x="70" y="30" class="st0" width="5" height="5"/>
		<rect x="75" y="30" class="st0" width="5" height="5"/>
		<rect x="80" y="30" class="st0" width="5" height="5"/>
		<rect x="85" y="30" class="st0" width="5" height="5"/>
		<rect x="90" y="30" class="st0" width="5" height="5"/>
		<rect x="95" y="30" class="st0" width="5" height="5"/>
		<rect x="100" y="30" class="st0" width="5" height="5"/>
		<rect x="105" y="30" class="st0" width="5" height="5"/>
		<rect x="110" y="30" class="st0" width="5" height="5"/>
		<rect x="115" y="30" class="st0" width="5" height="5"/>
		<rect x="120" y="30" class="st0" width="5" height="5"/>
		<rect x="125" y="30" class="st0" width="5" height="5"/>
		<rect x="130" y="30" class="st0" width="5" height="5"/>
		<rect x="135" y="30" class="st0" width="5" height="5"/>
		<rect x="140" y="30" class="st0" width="5" height="5"/>
		<rect x="145" y="30" class="st0" width="5" height="5"/>
		<rect x="150" y="30" class="st0" width="5" height="5"/>
		<rect x="155" y="30" class="st0" width="5" height="5"/>
		<rect x="160" y="30" class="st0" width="5" height="5"/>
		<rect x="165" y="30" class="st0" width="5" height="5"/>
		<rect x="170" y="30" class="st0" width="5" height="5"/>
		<rect x="175" y="30" class="st0" width="5" height="5"/>
		<rect x="180" y="30" class="st0" width="5" height="5"/>
		<rect x="185" y="30" class="st0" width="5" height="5"/>
		<rect x="190" y="30" class="st0" width="5" height="5"/>
		<rect x="195" y="30" class="st0" width="5" height="5"/>
		<rect x="200" y="30" class="st0" width="5" height="5"/>
		<rect x="205" y="30" class="st0" width="5" height="5"/>
		<rect x="15" y="30" transform="matrix(-1 -4.474744e-11 4.474744e-11 -1 35 65)" class="st0" width="5" height="5"/>
		<rect x="10" y="30" transform="matrix(-1 -4.511115e-11 4.511115e-11 -1 25 65)" class="st0" width="5" height="5"/>
		<rect x="5" y="30" transform="matrix(-1 -4.474744e-11 4.474744e-11 -1 15 65)" class="st0" width="5" height="5"/>
		<rect x="0" y="30" transform="matrix(-1 -4.474744e-11 4.474744e-11 -1 5 65)" class="st0" width="5" height="5"/>
		<rect x="5" y="25" transform="matrix(-1 -4.474744e-11 4.474744e-11 -1 15 55)" class="st0" width="5" height="5"/>
		<rect x="10" y="25" transform="matrix(-1 -4.511115e-11 4.511115e-11 -1 25 55)" class="st0" width="5" height="5"/>
		<rect x="10" y="20" transform="matrix(-1 -4.511115e-11 4.511115e-11 -1 25 45)" class="st0" width="5" height="5"/>
		<rect x="15" y="25" transform="matrix(-1 -4.474744e-11 4.474744e-11 -1 35 55)" class="st0" width="5" height="5"/>
		<rect x="15" y="20" transform="matrix(-1 -4.474744e-11 4.474744e-11 -1 35 45)" class="st0" width="5" height="5"/>
		<rect x="15" y="20" transform="matrix(-1 -4.474744e-11 4.474744e-11 -1 35 45)" class="st0" width="5" height="5"/>
		<rect x="15" y="15" transform="matrix(-1 -4.474744e-11 4.474744e-11 -1 35 35)" class="st0" width="5" height="5"/>
	</g>
	<g>
		<g>
			<rect x="34" y="5" class="st1" width="5" height="5"/>
			<rect x="39" y="5" class="st1" width="5" height="5"/>
			<rect x="44" y="5" class="st1" width="5" height="5"/>
			<rect x="34" y="10" class="st1" width="5" height="5"/>
			<rect x="39" y="10" class="st1" width="5" height="5"/>
			<rect x="44" y="10" class="st1" width="5" height="5"/>
			<rect x="44" y="15" class="st2" width="5" height="5"/>
			<rect x="39" y="15" class="st2" width="5" height="5"/>
			<rect x="34" y="15" class="st2" width="5" height="5"/>
		</g>
		<g>
			<rect x="36.5" class="st0" width="5" height="5"/>
			<rect x="29" y="7.5" class="st0" width="5" height="5"/>
			<rect x="29" y="12.5" class="st0" width="5" height="5"/>
			<rect x="31.5" y="17.5" class="st0" width="5" height="5"/>
			<rect x="46.5" y="17.5" class="st0" width="5" height="5"/>
			<rect x="36.5" y="20" class="st0" width="5" height="5"/>
			<rect x="41.5" y="20" class="st0" width="5" height="5"/>
			<rect x="41.5" y="20" class="st0" width="5" height="5"/>
			<rect x="49" y="7.5" class="st0" width="5" height="5"/>
			<rect x="49" y="12.5" class="st0" width="5" height="5"/>
			<rect x="31.5" y="2.5" class="st0" width="5" height="5"/>
			<rect x="46.5" y="2.5" class="st0" width="5" height="5"/>
			<rect x="41.5" class="st0" width="5" height="5"/>
		</g>
	</g>
	<g>
		<g>
			<rect x="64" y="5" class="st1" width="5" height="5"/>
			<rect x="69" y="5" class="st1" width="5" height="5"/>
			<rect x="74" y="5" class="st1" width="5" height="5"/>
			<rect x="64" y="10" class="st1" width="5" height="5"/>
			<rect x="69" y="10" class="st1" width="5" height="5"/>
			<rect x="74" y="10" class="st1" width="5" height="5"/>
			<rect x="74" y="15" class="st2" width="5" height="5"/>
			<rect x="69" y="15" class="st2" width="5" height="5"/>
			<rect x="64" y="15" class="st2" width="5" height="5"/>
		</g>
		<g>
			<rect x="66.5" class="st0" width="5" height="5"/>
			<rect x="59" y="7.5" class="st0" width="5" height="5"/>
			<rect x="59" y="12.5" class="st0" width="5" height="5"/>
			<rect x="61.5" y="17.5" class="st0" width="5" height="5"/>
			<rect x="76.5" y="17.5" class="st0" width="5" height="5"/>
			<rect x="66.5" y="20" class="st0" width="5" height="5"/>
			<rect x="71.5" y="20" class="st0" width="5" height="5"/>
			<rect x="71.5" y="20" class="st0" width="5" height="5"/>
			<rect x="79" y="7.5" class="st0" width="5" height="5"/>
			<rect x="79" y="12.5" class="st0" width="5" height="5"/>
			<rect x="61.5" y="2.5" class="st0" width="5" height="5"/>
			<rect x="76.5" y="2.5" class="st0" width="5" height="5"/>
			<rect x="71.5" class="st0" width="5" height="5"/>
		</g>
	</g>
	<g>
		<g>
			<rect x="94" y="5" class="st1" width="5" height="5"/>
			<rect x="99" y="5" class="st1" width="5" height="5"/>
			<rect x="104" y="5" class="st1" width="5" height="5"/>
			<rect x="94" y="10" class="st1" width="5" height="5"/>
			<rect x="99" y="10" class="st1" width="5" height="5"/>
			<rect x="104" y="10" class="st1" width="5" height="5"/>
			<rect x="104" y="15" class="st2" width="5" height="5"/>
			<rect x="99" y="15" class="st2" width="5" height="5"/>
			<rect x="94" y="15" class="st2" width="5" height="5"/>
		</g>
		<g>
			<rect x="96.5" class="st0" width="5" height="5"/>
			<rect x="89" y="7.5" class="st0" width="5" height="5"/>
			<rect x="89" y="12.5" class="st0" width="5" height="5"/>
			<rect x="91.5" y="17.5" class="st0" width="5" height="5"/>
			<rect x="106.5" y="17.5" class="st0" width="5" height="5"/>
			<rect x="96.5" y="20" class="st0" width="5" height="5"/>
			<rect x="101.5" y="20" class="st0" width="5" height="5"/>
			<rect x="101.5" y="20" class="st0" width="5" height="5"/>
			<rect x="109" y="7.5" class="st0" width="5" height="5"/>
			<rect x="109" y="12.5" class="st0" width="5" height="5"/>
			<rect x="91.5" y="2.5" class="st0" width="5" height="5"/>
			<rect x="106.5" y="2.5" class="st0" width="5" height="5"/>
			<rect x="101.5" class="st0" width="5" height="5"/>
		</g>
	</g>
	<g>
		<g>
			<rect x="124" y="5" class="st1" width="5" height="5"/>
			<rect x="129" y="5" class="st1" width="5" height="5"/>
			<rect x="134" y="5" class="st1" width="5" height="5"/>
			<rect x="124" y="10" class="st1" width="5" height="5"/>
			<rect x="129" y="10" class="st1" width="5" height="5"/>
			<rect x="134" y="10" class="st1" width="5" height="5"/>
			<rect x="134" y="15" class="st2" width="5" height="5"/>
			<rect x="129" y="15" class="st2" width="5" height="5"/>
			<rect x="124" y="15" class="st2" width="5" height="5"/>
		</g>
		<g>
			<rect x="126.5" class="st0" width="5" height="5"/>
			<rect x="119" y="7.5" class="st0" width="5" height="5"/>
			<rect x="119" y="12.5" class="st0" width="5" height="5"/>
			<rect x="121.5" y="17.5" class="st0" width="5" height="5"/>
			<rect x="136.5" y="17.5" class="st0" width="5" height="5"/>
			<rect x="126.5" y="20" class="st0" width="5" height="5"/>
			<rect x="131.5" y="20" class="st0" width="5" height="5"/>
			<rect x="131.5" y="20" class="st0" width="5" height="5"/>
			<rect x="139" y="7.5" class="st0" width="5" height="5"/>
			<rect x="139" y="12.5" class="st0" width="5" height="5"/>
			<rect x="121.5" y="2.5" class="st0" width="5" height="5"/>
			<rect x="136.5" y="2.5" class="st0" width="5" height="5"/>
			<rect x="131.5" class="st0" width="5" height="5"/>
		</g>
	</g>
	<g>
		<g>
			<rect x="154" y="5" class="st1" width="5" height="5"/>
			<rect x="159" y="5" class="st1" width="5" height="5"/>
			<rect x="164" y="5" class="st1" width="5" height="5"/>
			<rect x="154" y="10" class="st1" width="5" height="5"/>
			<rect x="159" y="10" class="st1" width="5" height="5"/>
			<rect x="164" y="10" class="st1" width="5" height="5"/>
			<rect x="164" y="15" class="st2" width="5" height="5"/>
			<rect x="159" y="15" class="st2" width="5" height="5"/>
			<rect x="154" y="15" class="st2" width="5" height="5"/>
		</g>
		<g>
			<rect x="156.5" class="st0" width="5" height="5"/>
			<rect x="149" y="7.5" class="st0" width="5" height="5"/>
			<rect x="149" y="12.5" class="st0" width="5" height="5"/>
			<rect x="151.5" y="17.5" class="st0" width="5" height="5"/>
			<rect x="166.5" y="17.5" class="st0" width="5" height="5"/>
			<rect x="156.5" y="20" class="st0" width="5" height="5"/>
			<rect x="161.5" y="20" class="st0" width="5" height="5"/>
			<rect x="161.5" y="20" class="st0" width="5" height="5"/>
			<rect x="169" y="7.5" class="st0" width="5" height="5"/>
			<rect x="169" y="12.5" class="st0" width="5" height="5"/>
			<rect x="151.5" y="2.5" class="st0" width="5" height="5"/>
			<rect x="166.5" y="2.5" class="st0" width="5" height="5"/>
			<rect x="161.5" class="st0" width="5" height="5"/>
		</g>
	</g>
	<g>
		<g>
			<rect x="184" y="5" class="st1" width="5" height="5"/>
			<rect x="189" y="5" class="st1" width="5" height="5"/>
			<rect x="194" y="5" class="st1" width="5" height="5"/>
			<rect x="184" y="10" class="st1" width="5" height="5"/>
			<rect x="189" y="10" class="st1" width="5" height="5"/>
			<rect x="194" y="10" class="st1" width="5" height="5"/>
			<rect x="194" y="15" class="st2" width="5" height="5"/>
			<rect x="189" y="15" class="st2" width="5" height="5"/>
			<rect x="184" y="15" class="st2" width="5" height="5"/>
		</g>
		<g>
			<rect x="186.5" class="st0" width="5" height="5"/>
			<rect x="179" y="7.5" class="st0" width="5" height="5"/>
			<rect x="179" y="12.5" class="st0" width="5" height="5"/>
			<rect x="181.5" y="17.5" class="st0" width="5" height="5"/>
			<rect x="196.5" y="17.5" class="st0" width="5" height="5"/>
			<rect x="186.5" y="20" class="st0" width="5" height="5"/>
			<rect x="191.5" y="20" class="st0" width="5" height="5"/>
			<rect x="191.5" y="20" class="st0" width="5" height="5"/>
			<rect x="199" y="7.5" class="st0" width="5" height="5"/>
			<rect x="199" y="12.5" class="st0" width="5" height="5"/>
			<rect x="181.5" y="2.5" class="st0" width="5" height="5"/>
			<rect x="196.5" y="2.5" class="st0" width="5" height="5"/>
			<rect x="191.5" class="st0" width="5" height="5"/>
		</g>
	</g>
</g>
</svg>
